<svg width="1920" height="1080" viewBox="0 0 1920 1080" fill="none" xmlns="http://www.w3.org/2000/svg">
<g clip-path="url(#clip0_91_28)">
<path d="M-0.109985 -0.5V1080.5H1919.89V-0.11L-0.109985 -0.5Z" fill="url(#paint0_linear_91_28)"/>
<path d="M499.64 509.73L544.09 581.89L583.91 594.77L602.13 633.42V683.67L576 1080.5H0V916.5L123 778.5L241.89 742.94L350.57 677.23V639.87L389.92 594.77L435.55 583.17L446.05 530.99L499.64 509.73Z" fill="#F2F6F9"/>
<path d="M350.57 639.87L413.26 630.61L463.47 655.83L519.72 616.76L583.91 594.77L544.09 581.89L499.64 509.73L446.05 530.99L435.55 583.17L389.92 594.77L350.57 639.87Z" fill="white"/>
<path opacity="0.03" d="M446.05 530.99L440.24 613.84L410.34 678.01L371.69 773.54L177 897.5L24 1080.5H0V916.5L123 778.5L241.89 742.94L350.57 677.23V639.87L389.92 594.77L435.55 583.17L446.05 530.99Z" fill="black"/>
<path opacity="0.02" d="M446.05 530.99C446.05 530.99 477.87 642.31 481.11 643.57C484.35 644.83 450.7 752.6 450.7 752.6L455.18 824.95L364.99 940.5L308.99 1080.5H24L177 897.5L371.69 773.54L405.82 689.17L440.23 613.84L446.04 530.99H446.05Z" fill="black"/>
<path d="M1320.78 708.22L1344.48 677.23L1364.89 685.31L1388.23 651.76H1400.79L1445.05 594.77L1454.9 601.21V621.83L1485.95 618.22L1498.11 646.31L1516.75 651.49L1533.35 669.26L1642 724.9L1706 815.5L1800 867.5L1883 934.5L1920 1026.5V1080.5L1658 1079.5L1314.58 891.11L1320.78 708.22Z" fill="#F2F6F9"/>
<path d="M1400.79 651.76L1428.34 674.37L1478.29 664.85L1533.35 669.26L1516.75 651.49L1498.11 646.31L1485.95 618.22L1454.9 621.83V601.21L1445.05 594.77L1400.79 651.76Z" fill="white"/>
<path opacity="0.03" d="M1445.05 594.77L1418.49 706.32V803.6L1308.38 737.45L1320.78 708.22L1344.48 677.23L1364.89 685.31L1388.23 651.76H1400.79L1445.05 594.77Z" fill="black"/>
<path opacity="0.02" d="M1445.05 594.77L1467.07 682.24L1498.11 710.34L1496.63 742.94L1484.73 788.68L1498.11 828.43L1485.95 823.13H1445.05L1418.49 803.6V706.32L1445.05 594.77Z" fill="black"/>
<path d="M1445.05 845.27L1398.21 814.57L1393.33 791.98L1344.48 773.81L1314.58 734.78L1266.45 584.7L1221.24 572.89L1104.4 484.49L1132.19 392.64L1129.57 361.64L1073.21 320.31V276.04L1057.16 228.46V175.65L999.55 143.5L970.66 196.31L930.28 224.06L913.71 276.04L886.52 300.74L858.08 372.86L797.56 417.7L737.61 528.12L631.3 616.54L597.48 691.15L554 751.05L563.94 777.26L554 829.61L577.8 913.88L892.36 1026.4L1155.63 1019.77L1314.58 869.11L1445.05 845.27Z" fill="#E0EFFA"/>
<path d="M797.56 417.7L889.81 455.71L988.16 436.71L1034.56 483.98H1104.56L1132.19 392.64L1129.57 361.64L1073.21 320.31V276.04L1057.16 228.46V175.65L999.55 143.5L970.66 196.31L930.28 224.06L913.71 276.04L886.52 300.74L858.08 372.86L797.56 417.7Z" fill="url(#paint1_linear_91_28)"/>
<path opacity="0.02" d="M999.55 143.5L1002.47 362.47L962.36 554.81L1009.03 738.05L941.95 1016.53L727.55 1009.02L777.14 745.85L913.51 498.92L999.55 143.5Z" fill="black"/>
<path opacity="0.03" d="M999.55 143.5L913.51 498.92L777.14 745.85L727.55 1009.02L474.88 1008.04L554 829.61L563.94 777.26L554 751.05L597.48 691.15L631.3 616.54L737.61 528.12L797.56 417.7L858.08 372.86L886.52 300.74L913.71 276.04L930.28 224.06L970.66 196.31L999.55 143.5Z" fill="black"/>
<path d="M1464.27 380.5H1674.01C1674.01 380.5 1733.88 376.51 1713.93 324.13C1699.96 287.46 1625.74 302.3 1625.74 302.3C1625.74 302.3 1628.36 249.91 1582.95 247.29C1537.54 244.67 1517.55 274.94 1516.63 295.61C1515.71 316.28 1437.29 328.6 1464.27 380.51V380.5Z" fill="url(#paint2_linear_91_28)"/>
<path d="M1678.46 474.5H1783.82C1783.82 474.5 1813.9 472.5 1803.87 446.18C1796.85 427.76 1759.56 435.21 1759.56 435.21C1759.56 435.21 1760.88 408.89 1738.07 407.57C1715.26 406.25 1705.22 421.46 1704.76 431.84C1704.3 442.22 1664.9 448.41 1678.46 474.49V474.5Z" fill="url(#paint3_linear_91_28)"/>
<path d="M908.55 953.31L842.53 921.17L846.52 881.23L824 847.73V798.77L782.01 759.77L796.59 715.29L746.28 650.39L731.21 604.21L622.31 704.71L609.18 771.44L535.68 820.67L507.92 865.77L478.19 885.09L435.32 984.3L376 1080.5L690 1079.5L911 1080.5L908.55 953.31Z" fill="#CAE4F6"/>
<path d="M609.42 768.44L646.01 779.02L689.63 768.44L772.04 786.67L782.25 756.77L796.83 712.29L746.51 647.39L731.44 601.21L622.55 701.71L609.42 768.44Z" fill="white"/>
<path opacity="0.03" d="M731.44 601.21L661.92 716.66V812L602.13 937.74L572 1080.5H537H376L435 984.5L478.42 882.09L508.16 862.77L535.92 817.67L609.42 768.44L622.55 701.71L731.44 601.21Z" fill="black"/>
<path opacity="0.02" d="M731.44 601.21L720.92 693.98L703.12 742.94L710.21 916.24L670 1080.5H576L602.13 937.74L661.92 812V716.66L731.44 601.21Z" fill="black"/>
<path d="M1642 891.11L1485.95 823.13H1402.08L1314.58 779.02L1254.79 788.68L1231.45 755.83L1193.18 749.38L1132.19 693.98L999.55 936.21L1172 1079.5H1642H1856L1728 988.5L1642 891.11Z" fill="#CAE4F6"/>
<path d="M1132.19 693.98L1066.44 814.06L1132.19 848.23L1196.44 823.13L1248.11 823.37L1282.72 784.17L1254.79 788.68L1231.45 755.83L1193.18 749.38L1132.19 693.98Z" fill="white"/>
<path opacity="0.03" d="M1132.19 693.98V788.68L1189.11 876.28L1203.15 968.84L1240.51 1054.1L1273 1079.5L1259 1080.5L1231 1081.5L1172.4 1079.55V1036.43L1095.08 955.85L1073.21 898.84L1029.63 881.28L1132.19 693.98Z" fill="black"/>
<path opacity="0.02" d="M1132.19 693.98L1166.32 754.15L1184.78 813.65L1276.66 870.53L1354.22 963.87L1381 1079.5H1334H1273L1240.51 1054.1L1203.15 968.84L1189.11 876.28L1132.19 788.68V693.98Z" fill="black"/>
<path d="M1125 1079.5L1172.4 1079.55V1036.43L1095.08 955.85L1073.21 898.84L1015.66 875.65V793.51L999.55 788.68L983.51 822.5L927.36 877.82L938.67 914.3L855.17 1014.91L818.09 1036.43L797 1080.5H988H1063L1125 1079.5Z" fill="#B3D3E8"/>
<path d="M999.55 788.68L983.51 822.5L927.36 877.82L938.67 914.3L917.15 939.8L980.59 963.87L1038.93 933.24L1086.13 932.51L1073.21 898.84L1015.66 875.65V793.51L999.55 788.68Z" fill="white"/>
<path opacity="0.03" d="M999.55 788.68L967.93 876.28V1006.89L898 1080.5H883H861L814 1079.5L804 1080.5H797L818.09 1036.43L855.17 1014.91L938.67 914.3L927.36 877.82L983.51 822.5L999.55 788.68Z" fill="black"/>
<path opacity="0.02" d="M999.55 788.68L988.16 882.9L1005.39 935.43L1013.41 1017.83L1006 1080.5H988H975H945H911H898L967.93 1006.89V876.28L999.55 788.68Z" fill="black"/>
<rect width="1920" height="1080" fill="url(#paint4_linear_91_28)"/>
</g>
<defs>
<linearGradient id="paint0_linear_91_28" x1="960.24" y1="1081.11" x2="959.54" y2="-1.11001" gradientUnits="userSpaceOnUse">
<stop stop-color="#E6F3F7"/>
<stop offset="0.19" stop-color="#D5EAF1"/>
<stop offset="0.58" stop-color="#AAD5E3"/>
<stop offset="0.61" stop-color="#A6D3E2"/>
<stop offset="0.67" stop-color="#A1CFDF"/>
<stop offset="0.75" stop-color="#93C4D6"/>
<stop offset="0.82" stop-color="#7DB2C9"/>
<stop offset="0.9" stop-color="#5D98B6"/>
<stop offset="0.98" stop-color="#35789D"/>
<stop offset="1" stop-color="#2A6F97"/>
</linearGradient>
<linearGradient id="paint1_linear_91_28" x1="964.92" y1="484.07" x2="964.71" y2="143.52" gradientUnits="userSpaceOnUse">
<stop stop-color="#E0EFFA"/>
<stop offset="0.08" stop-color="#EAF4FB"/>
<stop offset="0.23" stop-color="#F6FAFD"/>
<stop offset="0.43" stop-color="#FDFEFE"/>
<stop offset="1" stop-color="white"/>
</linearGradient>
<linearGradient id="paint2_linear_91_28" x1="1588.33" y1="380.55" x2="1588.25" y2="247.12" gradientUnits="userSpaceOnUse">
<stop stop-color="#E0EFFA"/>
<stop offset="0.08" stop-color="#EAF4FB"/>
<stop offset="0.23" stop-color="#F6FAFD"/>
<stop offset="0.43" stop-color="#FDFEFE"/>
<stop offset="1" stop-color="white"/>
</linearGradient>
<linearGradient id="paint3_linear_91_28" x1="1740.78" y1="474.53" x2="1740.74" y2="407.5" gradientUnits="userSpaceOnUse">
<stop stop-color="#E0EFFA"/>
<stop offset="0.08" stop-color="#EAF4FB"/>
<stop offset="0.23" stop-color="#F6FAFD"/>
<stop offset="0.43" stop-color="#FDFEFE"/>
<stop offset="1" stop-color="white"/>
</linearGradient>
<linearGradient id="paint4_linear_91_28" x1="960" y1="540" x2="960" y2="1080" gradientUnits="userSpaceOnUse">
<stop stop-color="white" stop-opacity="0"/>
<stop offset="1" stop-color="white"/>
</linearGradient>
<clipPath id="clip0_91_28">
<rect width="1920" height="1080" fill="white"/>
</clipPath>
</defs>
</svg>
