<?xml version="1.0" encoding="UTF-8"?>
<svg id="Calque_2" data-name="Calque 2" xmlns="http://www.w3.org/2000/svg" viewBox="0 0 344.74 343.07">
  <defs>
    <style>
      .cls-1 {
        fill: #14746f;
      }

      .cls-2 {
        fill: #036666;
      }
    </style>
  </defs>
  <g id="piece">
    <path class="cls-2" d="M334.74,303.89c-3.64,0-7.16-2-8.92-5.47L194.81,40.77l-62.69,101.31c-2.91,4.7-9.07,6.15-13.77,3.24-4.7-2.91-6.15-9.07-3.24-13.77L196.52,0l147.13,289.35c2.5,4.92,.54,10.94-4.38,13.45-1.45,.74-3,1.09-4.52,1.09Z"/>
    <g>
      <path class="cls-2" d="M11.5,184.98v27.3H0v-28.9c0-3.13,.87-5.56,2.6-7.3,1.73-1.73,4.5-2.6,8.3-2.6h6.8v8.8h-3.3c-1.13,0-1.9,.18-2.3,.55-.4,.37-.6,1.08-.6,2.15Zm0,23.4v16.7c0,1,.2,1.7,.6,2.1s1.17,.6,2.3,.6h3.2v8.8h-6.7c-3.8,0-6.57-.87-8.3-2.6-1.73-1.73-2.6-4.17-2.6-7.3v-18.3H11.5Zm11,16.7v-16.2h11.5v17.8c0,3.13-.85,5.57-2.55,7.3-1.7,1.73-4.48,2.6-8.35,2.6h-7.2v-8.8h3.8c1.13,0,1.88-.2,2.25-.6,.37-.4,.55-1.1,.55-2.1Zm0-12.8v-27.3c0-1.07-.18-1.78-.55-2.15-.37-.37-1.12-.55-2.25-.55h-3.4v-8.8h6.8c3.87,0,6.65,.87,8.35,2.6,1.7,1.73,2.55,4.17,2.55,7.3v28.9h-11.5Z"/>
      <path class="cls-2" d="M42.8,169.68h11.3v59.4l-.1,.4v7.1h-11.2v-66.9Zm31.6,43.7h-11.4v-14.5c0-1.06-.18-1.78-.55-2.15-.37-.37-1.12-.55-2.25-.55h-3c-1.07,0-1.85,.25-2.35,.75s-.75,1.38-.75,2.65v3.1h-.5v-7.8c0-2.53,.67-4.42,2-5.65,1.33-1.23,3.17-1.85,5.5-1.85h3c3.6,0,6.22,.87,7.85,2.6,1.63,1.73,2.45,4.17,2.45,7.3v16.1Zm-11.4-2.9h11.4v16.2c0,3.13-.82,5.57-2.45,7.3-1.63,1.73-4.25,2.6-7.85,2.6h-3c-2.33,0-4.17-.62-5.5-1.85-1.33-1.23-2-3.12-2-5.65v-7.1h.5v2.5c0,1.2,.25,2.05,.75,2.55s1.28,.75,2.35,.75h3c1.13,0,1.88-.2,2.25-.6,.37-.4,.55-1.1,.55-2.1v-14.6Z"/>
      <path class="cls-2" d="M82.2,238.88v-51.4h11.3v52.8c0,3.13-.85,5.57-2.55,7.3-1.7,1.73-4.48,2.6-8.35,2.6h-5.5v-8.6h2.2c1.13,0,1.9-.2,2.3-.6,.4-.4,.6-1.1,.6-2.1Zm-.3-59.4v-9.9h11.9v9.9h-11.9Z"/>
      <path class="cls-2" d="M112.6,198.58v26.8c0,1.07,.2,1.79,.6,2.15,.4,.37,1.13,.55,2.2,.55h2.6v8.5h-5.5c-3.8,0-6.57-.87-8.3-2.6-1.73-1.73-2.6-4.17-2.6-7.3v-29.3c0-3.13,.87-5.56,2.6-7.3,1.73-1.73,4.5-2.6,8.3-2.6h5.9v8.4h-3c-1.07,0-1.8,.19-2.2,.55-.4,.37-.6,1.08-.6,2.15Zm21.3,9.4v7.3h-28.8v-7.3h28.8Zm-10.9,5.8v-15.2c0-1.07-.18-1.78-.55-2.15-.37-.37-1.12-.55-2.25-.55h-2.9v-8.4h5.8c3.8,0,6.55,.87,8.25,2.6,1.7,1.73,2.55,4.17,2.55,7.3v16.4h-10.9Zm-.2,11.6v-3.7h11v5c0,3.13-.87,5.57-2.6,7.3-1.73,1.73-4.5,2.6-8.3,2.6h-5.6v-8.5h2.7c1.13,0,1.88-.2,2.25-.6,.37-.4,.55-1.1,.55-2.1Z"/>
      <path class="cls-2" d="M151.9,198.98v26.1c0,1,.2,1.7,.6,2.1s1.13,.6,2.2,.6h2.3v8.8h-5.5c-3.87,0-6.65-.87-8.35-2.6-1.7-1.73-2.55-4.17-2.55-7.3v-29.3c0-3.13,.85-5.56,2.55-7.3,1.7-1.73,4.48-2.6,8.35-2.6h5.8v8.8h-2.6c-1.07,0-1.8,.18-2.2,.55-.4,.37-.6,1.08-.6,2.15Zm9.2,5v-5c0-1.07-.18-1.78-.55-2.15-.37-.37-1.12-.55-2.25-.55h-2.4v-8.8h5.4c3.87,0,6.65,.87,8.35,2.6,1.7,1.73,2.55,4.17,2.55,7.3v6.6h-11.1Zm0,21.1v-5.1h11.1v6.7c0,3.13-.85,5.57-2.55,7.3-1.7,1.73-4.48,2.6-8.35,2.6h-5.4v-8.8h2.4c1.13,0,1.88-.2,2.25-.6,.37-.4,.55-1.1,.55-2.1Z"/>
      <path class="cls-2" d="M198.4,187.48v8.8h-22.9v-8.8h22.9Zm-6.7-8.8v46.1c0,1.07,.2,1.79,.6,2.15,.4,.37,1.17,.55,2.3,.55h3.7v9.1h-7c-3.87,0-6.65-.87-8.35-2.6-1.7-1.73-2.55-4.17-2.55-7.3v-48h11.3Z"/>
      <path class="cls-2" d="M203.4,179.48v-9.9h11.9v9.9h-11.9Zm11.6,57.1h-11.3v-49.1h11.3v49.1Z"/>
      <path class="cls-2" d="M243.59,187.48v8.8h-23.6v-8.8h23.6Zm-7.3-6.2v55.3h-11.3v-57c0-3.13,.85-5.57,2.55-7.3,1.7-1.73,4.45-2.6,8.25-2.6h7.8v8.9h-4.5c-1.07,0-1.8,.18-2.2,.55-.4,.37-.6,1.08-.6,2.15Z"/>
    </g>
    <g>
      <path class="cls-1" d="M121.7,329.36h-9.3l-8.4-30.5v44.2h-10.2v-63.1h12.6l10.6,37.5,10.6-37.5h12.6v63.1h-10.1v-44.3l-8.4,30.6Z"/>
      <path class="cls-1" d="M149.1,285.96v-9.9h11.9v9.9h-11.9Zm11.6,57.1h-11.3v-49.1h11.3v49.1Z"/>
      <path class="cls-1" d="M180.6,343.07h-11.3v-66.9h11.3v66.9Z"/>
      <path class="cls-1" d="M200.5,343.07h-11.3v-66.9h11.3v66.9Z"/>
      <path class="cls-1" d="M208.8,285.96v-9.9h11.9v9.9h-11.9Zm11.6,57.1h-11.3v-49.1h11.3v49.1Z"/>
      <path class="cls-1" d="M239.6,305.17v19.9h-11.1v-21.2c0-3.13,.82-5.56,2.45-7.3,1.63-1.73,4.38-2.6,8.25-2.6h5.8v8.5h-2.5c-1.13,0-1.9,.18-2.3,.55-.4,.37-.6,1.08-.6,2.15Zm0,16v10.7c0,1,.2,1.7,.6,2.1s1.17,.6,2.3,.6h2.4v8.5h-5.7c-3.87,0-6.62-.87-8.25-2.6-1.63-1.73-2.45-4.17-2.45-7.3v-12h11.1Zm10.4,10.7v-10.2h11.1v11.5c0,3.13-.82,5.57-2.45,7.3-1.63,1.73-4.35,2.6-8.15,2.6h-6.3v-8.5h2.9c1.13,0,1.9-.2,2.3-.6,.4-.4,.6-1.1,.6-2.1Zm0-6.9v-19.8c0-1.07-.2-1.78-.6-2.15-.4-.37-1.17-.55-2.3-.55h-2.5v-8.5h5.9c3.8,0,6.52,.87,8.15,2.6,1.63,1.73,2.45,4.17,2.45,7.3v21.1h-11.1Z"/>
      <path class="cls-1" d="M280.5,343.07h-11.3v-49.1h11.2v7.1l.1,.4v41.6Zm20.3,0h-11.4v-37.6c0-1.07-.18-1.78-.55-2.15-.37-.37-1.12-.55-2.25-.55h-3c-1.07,0-1.85,.25-2.35,.75s-.75,1.35-.75,2.55v3.1h-.5v-7.8c0-2.46,.67-4.31,2-5.55,1.33-1.23,3.17-1.85,5.5-1.85h3c3.6,0,6.22,.87,7.85,2.6,1.63,1.73,2.45,4.17,2.45,7.3v39.2Z"/>
    </g>
  </g>
</svg>