<?xml version="1.0" encoding="UTF-8"?>
<svg id="Calque_2" data-name="Calque 2" xmlns="http://www.w3.org/2000/svg" viewBox="0 0 1079.5 947.78">
  <defs>
    <style>
      .cls-1 {
        fill: #9e7700;
      }

      .cls-2 {
        fill: #e4cf28;
      }

      .cls-3 {
        fill: #856300;
      }

      .cls-4 {
        fill: #755c00;
      }

      .cls-5 {
        fill: #dfbca4;
      }

      .cls-6 {
        fill: #b59100;
      }

      .cls-7 {
        fill: #4d4d4d;
      }

      .cls-8 {
        fill: #be9700;
      }

      .cls-9 {
        fill: #e4c728;
      }

      .cls-10 {
        fill: #8a6651;
      }

      .cls-11 {
        fill: #9e7e00;
      }

      .cls-12 {
        fill: #750a00;
      }

      .cls-13 {
        fill: #333;
      }

      .cls-14 {
        fill: #b58a00;
      }

      .cls-15 {
        fill: #9e1100;
      }

      .cls-16 {
        fill: #c3977a;
      }

      .cls-17 {
        fill: #a67d00;
      }

      .cls-18 {
        fill: #850400;
      }

      .cls-19 {
        fill: #e43f1d;
      }

      .cls-20 {
        fill: #464646;
      }

      .cls-21 {
        fill: #1a1a1a;
      }

      .cls-22 {
        fill: #c39b7a;
      }

      .cls-23 {
        fill: #e8c9b6;
      }

      .cls-24 {
        fill: #dfbfa4;
      }

      .cls-25 {
        fill: none;
        stroke: #464646;
        stroke-miterlimit: 10;
        stroke-width: 6px;
      }

      .cls-26 {
        fill: #666;
      }

      .cls-27 {
        fill: #4f5252;
      }

      .cls-28 {
        fill: #be0800;
      }

      .cls-29 {
        fill: #856800;
      }

      .cls-30 {
        fill: #be8f00;
      }
    </style>
  </defs>
  <g id="perso">
    <g>
      <rect class="cls-2" x="115.57" y="912.32" width="84.93" height="19.88"/>
      <rect class="cls-2" x="293.64" y="932.19" width="100.71" height="15.59"/>
      <polygon class="cls-6" points="127.5 851.78 175.5 850.78 200.5 912.32 115.57 912.32 127.5 851.78"/>
      <polygon class="cls-6" points="394.35 932.19 293.64 932.19 298.5 874.78 354.5 874.78 394.35 931.28 394.35 932.19"/>
      <polygon class="cls-4" points="265.77 809.63 339.53 756.31 354.5 874.78 298.5 874.78 265.77 809.63"/>
      <polygon class="cls-29" points="116.56 766.51 204.32 769.77 175.5 850.78 127.5 851.78 116.56 766.51"/>
      <polygon class="cls-8" points="132.63 573.78 98.5 625.78 116.56 766.51 204.32 769.77 230 698.28 132.63 573.78"/>
      <polygon class="cls-11" points="319 588.91 233 611.28 132.63 573.78 230 698.28 319 588.91"/>
      <polygon class="cls-29" points="265.77 809.63 339.53 756.31 319 588.91 230 698.28 221.5 721.49 265.77 809.63"/>
      <polygon class="cls-29" points="233 611.28 215.5 453.78 312.5 472.78 319 588.91 233 611.28"/>
      <polygon class="cls-8" points="132.63 573.78 120.89 529.19 215.5 453.78 233 611.28 132.63 573.78"/>
      <polygon class="cls-4" points="312.5 472.78 336.5 396.78 275.5 365.78 215.5 453.78 312.5 472.78"/>
      <polygon class="cls-29" points="80.5 375.78 148.5 357.78 215.5 453.78 120.89 529.19 80.5 375.78"/>
      <polygon class="cls-2" points="148.5 357.78 275.5 365.78 215.5 453.78 148.5 357.78"/>
      <polygon class="cls-8" points="399 539.28 329.97 552.45 316.14 537.74 312.5 472.78 336.5 396.78 351.73 405.78 399 539.28"/>
      <polygon class="cls-29" points="467 561.28 449 522.28 399 539.28 329.97 552.45 389 615.28 467 561.28"/>
      <polygon class="cls-22" points="464 512.28 511 485.28 513 499.28 483.65 516.78 465.1 522.28 464 512.28"/>
      <polygon class="cls-22" points="467 561.28 484.57 551.59 465.1 522.28 453.73 532.53 467 561.28"/>
      <polygon class="cls-24" points="465.1 522.28 464 512.28 467 482.28 455 477.28 449 522.28 453.73 532.53 465.1 522.28"/>
      <polygon class="cls-24" points="484.57 551.59 496 545.28 483.65 516.78 465.1 522.28 484.57 551.59"/>
      <polygon class="cls-8" points="80.5 375.78 0 499.28 98.5 625.78 128.43 580.18 76 515.28 110.36 489.2 80.5 375.78"/>
      <polygon class="cls-24" points="113.16 561.28 72.8 592.78 98.5 625.78 128.43 580.18 113.16 561.28"/>
      <polygon class="cls-29" points="76 515.28 50.37 563.97 72.8 592.78 113.16 561.28 76 515.28"/>
      <polygon class="cls-16" points="148.5 357.78 146 273.28 125 226.28 103 200.28 147 79.28 294 17.28 370 93.28 355.75 306.87 276 337.2 275.5 365.78 148.5 357.78"/>
      <polygon class="cls-30" points="370 93.28 276 133.71 294 17.28 370 93.28"/>
      <polygon class="cls-3" points="366.32 148.47 332.02 109.62 370 93.28 366.32 148.47"/>
      <polygon class="cls-17" points="276 133.71 294 17.28 147 79.28 276 133.71"/>
      <polygon class="cls-30" points="103 200.28 197.02 100.39 147 79.28 103 200.28"/>
      <polygon class="cls-5" points="355.75 306.87 197.02 306.87 197.02 100.39 276 133.71 332.02 109.62 366.32 148.47 355.75 306.87"/>
      <polygon class="cls-10" points="275.5 365.78 197.02 306.87 355.75 306.87 276 337.2 275.5 365.78"/>
      <polygon class="cls-5" points="146 273.28 167 256.28 141 212.28 125 226.28 146 273.28"/>
      <polygon class="cls-3" points="159.94 139.78 173 220.28 154.66 235.4 141 212.28 125 226.28 103 200.28 159.94 139.78"/>
      <polygon class="cls-3" points="310 167.28 304 156.28 335 144.28 352 162.28 334 158.28 310 167.28"/>
      <polygon class="cls-3" points="250 167.28 256 156.28 225 144.28 208 162.28 226 158.28 250 167.28"/>
      <circle class="cls-20" cx="325.5" cy="187.78" r="10.5"/>
      <circle class="cls-27" cx="231.5" cy="185.78" r="10.5"/>
      <polygon class="cls-23" points="272.25 188.28 275 225.28 289.29 225.28 284.87 188.28 272.25 188.28"/>
      <polygon class="cls-10" points="281.5 235.78 289.19 225.45 275 225.28 281.5 235.78"/>
      <polygon class="cls-16" points="274.85 223.28 262 200.28 272.25 188.28 274.85 223.28"/>
      <line class="cls-25" x1="251" y1="262.28" x2="297" y2="267.28"/>
      <polygon class="cls-10" points="167 256.28 146.75 298.76 146 273.28 167 256.28"/>
      <polygon class="cls-10" points="132.63 230.53 138 225.28 150.01 242.78 132.63 230.53"/>
    </g>
    <g>
      <rect class="cls-9" x="881.33" y="926.09" width="97.6" height="19.56"/>
      <polygon class="cls-14" points="881.33 926.09 909.1 871.75 956.91 871.75 978.93 926.09 881.33 926.09"/>
      <polygon class="cls-3" points="876.15 740.89 994.77 710.77 956.91 871.75 909.1 871.75 876.15 740.89"/>
      <polygon class="cls-30" points="949.58 527.19 863.92 631.69 876.15 740.89 994.77 710.77 949.58 527.19"/>
      <rect class="cls-9" x="704.66" y="926.09" width="97.6" height="19.56"/>
      <polygon class="cls-14" points="802.25 926.09 774.48 871.75 726.68 871.75 704.66 926.09 802.25 926.09"/>
      <polygon class="cls-3" points="807.43 740.89 688.81 710.77 726.68 871.75 774.48 871.75 807.43 740.89"/>
      <polygon class="cls-30" points="734 527.19 819.67 631.69 807.43 740.89 688.81 710.77 734 527.19"/>
      <polygon class="cls-1" points="819.67 631.69 863.92 631.69 949.58 527.19 847.91 558.26 734 527.19 819.67 631.69"/>
      <polygon class="cls-11" points="734 527.19 743.41 433.99 696.34 284.31 742.47 244.77 774.48 289.96 847.91 558.26 734 527.19"/>
      <polygon class="cls-11" points="949.58 527.19 952.41 433.99 999.48 284.31 953.35 244.77 921.34 289.96 847.91 558.26 949.58 527.19"/>
      <polygon class="cls-8" points="774.48 289.96 921.34 289.96 847.91 558.26 774.48 289.96"/>
      <polygon class="cls-30" points="999.48 284.31 1079.5 507.42 962.45 579.44 952.83 540.38 1011.72 482.01 959.94 410.46 999.48 284.31"/>
      <polygon class="cls-29" points="1011.72 482.01 1044.67 410.46 1079.5 507.42 988.94 563.14 977.34 516.09 1011.72 482.01"/>
      <polygon class="cls-24" points="977.34 516.09 952.83 540.38 962.45 579.44 988.94 563.14 977.34 516.09"/>
      <polygon class="cls-30" points="696.34 284.31 605.45 501.77 722.5 573.79 732.12 534.74 673.23 476.36 735.88 408.57 696.34 284.31"/>
      <polygon class="cls-29" points="673.23 476.36 643.62 410.46 605.45 501.77 696.01 557.49 707.61 510.44 673.23 476.36"/>
      <polygon class="cls-24" points="707.61 510.44 732.12 534.74 722.5 573.79 696.01 557.49 707.61 510.44"/>
      <polygon class="cls-9" points="953.35 244.77 917.58 236.3 787.66 236.3 742.47 244.77 774.48 289.96 921.34 289.96 953.35 244.77"/>
      <polygon class="cls-5" points="917.58 236.3 931.7 157.61 944.82 157.61 953.35 112.28 942.52 106.23 891.22 192.99 823.43 192.99 767.89 103.56 754.71 112.03 754.71 158.47 771.66 158.47 787.66 236.3 917.58 236.3"/>
      <polygon class="cls-30" points="767.89 103.56 767.89 49.68 859.21 0 942.05 48.95 942.05 106.23 891.22 192.99 823.43 192.99 767.89 103.56"/>
      <polygon class="cls-3" points="952.41 433.99 847.91 558.26 949.58 527.19 952.41 433.99"/>
      <polygon class="cls-3" points="743.41 433.99 847.91 558.26 734 527.19 743.41 433.99"/>
      <polygon class="cls-17" points="859.21 0 859.21 192.99 823.43 192.99 767.89 103.56 767.89 49.68 859.21 0"/>
      <polygon class="cls-4" points="854.03 289.96 847.91 558.26 774.48 289.96 854.03 289.96"/>
      <polygon class="cls-1" points="774.48 289.96 854.03 236.3 921.34 289.96 774.48 289.96"/>
    </g>
    <g>
      <polygon class="cls-21" points="769.1 480.59 769.1 315.99 801.6 270.15 830.2 314.01 830.2 480.59 769.1 480.59"/>
      <rect class="cls-26" x="776.97" y="480.4" width="47.51" height="13.83"/>
      <polygon class="cls-21" points="866.36 480.59 866.44 314.01 898.86 270.15 927.46 314.01 927.46 480.59 866.36 480.59"/>
      <rect class="cls-26" x="873.27" y="480.4" width="47.51" height="13.83"/>
      <polygon points="769.1 386.81 710.51 448.46 710.51 476.35 769.1 465.54 769.1 386.81"/>
      <polygon class="cls-7" points="926.95 385.86 985.55 447.5 985.55 475.39 926.95 464.58 926.95 385.86"/>
      <polygon class="cls-13" points="830.2 314.01 866.44 314.01 866.36 463.79 830.2 463.79 830.2 314.01"/>
    </g>
    <g>
      <polygon class="cls-12" points="812.74 505.01 825.4 508.3 837.53 518.4 836.37 532.93 827.16 543.43 829.1 557.28 822.49 544.84 824.82 529.93 812.74 505.01"/>
      <polygon class="cls-19" points="822.3 556.74 824.25 565.64 819.87 577.66 818.38 562.89 822.3 556.74"/>
      <polygon class="cls-19" points="778.23 570.33 780.89 556.09 778.32 540.67 789.2 518.72 791.82 504.48 763.26 519.69 762.66 546.27 773.92 557.44 778.23 570.33"/>
      <polygon class="cls-19" points="783.13 585.18 786.82 577.1 782.65 572.21 783.13 585.18"/>
      <polygon class="cls-12" points="821.86 528.94 802.2 533.69 803.2 505.39 821.86 528.94"/>
      <polygon class="cls-18" points="784.15 534.29 802.2 533.69 803.2 505.39 784.15 534.29"/>
      <polygon class="cls-18" points="810.75 563.04 802.21 533.68 821.87 528.95 810.75 563.04"/>
      <polygon class="cls-15" points="785.64 563.32 810.76 563.04 802.2 533.69 784.15 534.29 785.64 563.32"/>
      <polygon class="cls-28" points="798.27 582.91 810.34 587.35 810.76 563.04 785.64 563.32 798.27 582.91"/>
      <polygon class="cls-19" points="799.86 613.9 810.34 587.35 798.27 582.91 799.86 613.9"/>
      <polygon class="cls-12" points="791.82 504.48 777.5 522.35 763.26 519.69 791.82 504.48"/>
      <polygon class="cls-18" points="789.2 518.72 777.5 522.35 791.82 504.48 789.2 518.72"/>
      <polygon class="cls-18" points="762.66 546.27 777.5 522.35 763.26 519.69 762.66 546.27"/>
      <polygon class="cls-15" points="789.2 518.72 778.32 540.67 762.66 546.27 777.5 522.35 789.2 518.72"/>
      <polygon class="cls-28" points="780.89 556.09 773.92 557.44 762.66 546.27 778.32 540.67 780.89 556.09"/>
      <polygon class="cls-19" points="827.16 543.43 822.49 544.84 829.1 557.28 827.16 543.43"/>
      <polygon class="cls-28" points="836.37 532.93 824.82 529.93 822.49 544.84 827.16 543.43 836.37 532.93"/>
      <polygon class="cls-15" points="837.53 518.4 812.74 505.01 824.82 529.93 836.37 532.93 837.53 518.4"/>
    </g>
    <g>
      <polygon class="cls-12" points="886.67 507.15 874.12 510.45 862.11 520.56 863.26 535.11 872.38 545.63 870.46 559.5 877.01 547.04 874.7 532.11 886.67 507.15"/>
      <polygon class="cls-19" points="877.19 558.95 875.26 567.87 879.61 579.9 881.08 565.11 877.19 558.95"/>
      <polygon class="cls-19" points="920.86 572.57 918.22 558.31 920.77 542.87 909.99 520.88 907.39 506.62 935.7 521.86 936.29 548.47 925.13 559.65 920.86 572.57"/>
      <polygon class="cls-19" points="916 587.43 912.35 579.35 916.49 574.45 916 587.43"/>
      <polygon class="cls-12" points="877.64 531.11 897.12 535.87 896.12 507.53 877.64 531.11"/>
      <polygon class="cls-18" points="914.99 536.48 897.12 535.87 896.12 507.53 914.99 536.48"/>
      <polygon class="cls-18" points="888.64 565.27 897.1 535.86 877.62 531.12 888.64 565.27"/>
      <polygon class="cls-15" points="913.52 565.54 888.63 565.27 897.12 535.87 914.99 536.48 913.52 565.54"/>
      <polygon class="cls-28" points="901.01 585.16 889.04 589.61 888.63 565.27 913.52 565.54 901.01 585.16"/>
      <polygon class="cls-19" points="899.43 616.19 889.04 589.61 901.01 585.16 899.43 616.19"/>
      <polygon class="cls-12" points="907.39 506.62 921.58 524.52 935.7 521.86 907.39 506.62"/>
      <polygon class="cls-18" points="909.99 520.88 921.58 524.52 907.39 506.62 909.99 520.88"/>
      <polygon class="cls-18" points="936.29 548.47 921.58 524.52 935.7 521.86 936.29 548.47"/>
      <polygon class="cls-15" points="909.99 520.88 920.77 542.87 936.29 548.47 921.58 524.52 909.99 520.88"/>
      <polygon class="cls-28" points="918.22 558.31 925.13 559.65 936.29 548.47 920.77 542.87 918.22 558.31"/>
      <polygon class="cls-19" points="872.38 545.63 877.01 547.04 870.46 559.5 872.38 545.63"/>
      <polygon class="cls-28" points="863.26 535.11 874.7 532.11 877.01 547.04 872.38 545.63 863.26 535.11"/>
      <polygon class="cls-15" points="862.11 520.56 886.67 507.15 874.7 532.11 863.26 535.11 862.11 520.56"/>
    </g>
  </g>
</svg>