<?xml version="1.0" encoding="UTF-8"?>
<svg id="Calque_2" data-name="Calque 2" xmlns="http://www.w3.org/2000/svg" viewBox="0 0 250.67 246.42">
  <defs>
    <style>
      .cls-1 {
        fill: #453185;
      }

      .cls-2 {
        fill: #a078e4;
      }

      .cls-3 {
        fill: #6f5db5;
      }

      .cls-4 {
        fill: none;
      }

      .cls-5 {
        fill: #51409e;
      }

      .cls-6 {
        fill: #402f75;
      }
    </style>
  </defs>
  <g id="piece">
    <g>
      <polygon class="cls-3" points="238.99 65.71 216.53 35.16 184.19 11.8 144.83 .12 107.45 .12 107.43 0 107 .12 106.92 .12 106.92 .15 75.47 9.11 48.46 24.78 22.46 49.54 7.19 76.49 0 110.69 0 149.27 11.68 180.71 34.14 211.26 66.49 234.62 105.84 246.3 143.22 246.3 143.24 246.42 143.67 246.3 143.76 246.3 143.75 246.28 175.2 237.32 202.22 221.65 228.21 196.89 243.49 169.93 250.67 135.74 250.67 97.16 238.99 65.71"/>
      <polygon class="cls-2" points="208.85 81.3 192.34 58.85 168.58 41.69 139.66 33.1 112.19 33.1 112.18 33.01 111.87 33.1 111.8 33.1 111.81 33.12 88.7 39.71 68.85 51.22 49.75 69.41 38.52 89.22 33.24 114.34 33.24 142.69 41.83 165.8 58.33 188.24 82.1 205.41 111.01 213.99 138.48 213.99 138.49 214.08 138.81 213.99 138.87 213.99 138.87 213.97 161.98 207.39 181.83 195.87 200.93 177.68 212.15 157.88 217.43 132.75 217.43 104.4 208.85 81.3"/>
      <g>
        <polygon class="cls-4" points="148.83 100.98 163.18 85.79 148.83 72.33 134.48 69.76 134.48 57.42 114.23 57.42 114.23 68.6 100.72 73.98 89.75 84.1 85.98 100.98 88.06 114.49 99.88 127.15 115.49 134.32 115.92 161.75 95.66 152.47 81.31 165.97 92.28 176.95 103.26 182.01 116.57 183.68 116.57 192.62 135.19 192.62 135.19 184.54 145.46 180.32 156.43 171.88 163.18 159.82 164.87 144.87 159.81 133.06 151.35 125.02 141.24 119.55 134.91 116.6 134.91 91.28 148.83 100.98"/>
        <polygon class="cls-4" points="114.77 88.66 108.74 96.34 108.74 108.42 115.18 112.65 114.77 88.66"/>
        <polygon class="cls-4" points="134.91 139.39 142.19 147.83 142.19 159.9 134.91 163.02 134.91 139.39"/>
        <polygon class="cls-5" points="148.83 100.98 163.18 85.79 148.83 72.33 134.63 84.81 134.91 91.28 148.83 100.98"/>
        <polygon class="cls-6" points="89.75 84.1 108.74 108.42 108.74 96.34 114.77 88.66 134.91 91.28 134.63 84.81 148.83 72.33 134.48 69.76 114.23 68.6 100.72 73.98 89.75 84.1"/>
        <polygon class="cls-5" points="115.49 134.32 115.18 112.65 108.74 108.42 89.75 84.1 85.98 100.98 88.06 114.49 99.88 127.15 115.49 134.32"/>
        <polygon class="cls-5" points="114.23 57.42 116.57 192.62 135.19 192.62 134.48 57.42 114.23 57.42"/>
        <polygon class="cls-5" points="134.7 115.56 134.86 138.39 141.98 146.78 142.16 160.06 163.83 154.23 164.66 143.83 159.6 132.01 151.14 123.98 134.7 115.56"/>
        <polygon class="cls-6" points="134.91 163.02 135.19 184.54 145.46 180.32 156.43 171.88 163.18 159.82 163.82 154.17 142.19 159.9 134.91 163.02"/>
        <polygon class="cls-5" points="95.66 152.47 115.92 161.75 116.57 183.68 103.26 182.01 92.28 176.95 81.31 165.97 95.66 152.47"/>
        <polygon class="cls-6" points="134.91 156.51 116.34 179.48 115.85 151.2 134.91 142.47 134.91 156.51"/>
        <polygon class="cls-6" points="114.77 88.66 134.63 106.8 134.86 124.43 115.49 134.32 114.77 88.66"/>
        <polygon class="cls-6" points="114.77 57.42 134.48 57.42 134.48 69.76 114.23 68.6 114.23 57.42 114.77 57.42"/>
      </g>
      <polygon class="cls-1" points="138.49 214.08 175.2 237.32 202.22 221.65 228.21 196.89 181.83 195.87 161.98 207.39 138.49 214.08"/>
      <polygon class="cls-1" points="200.93 177.68 250.67 135.74 250.67 97.16 238.99 65.71 168.58 41.69 192.34 58.85 208.85 81.3 217.43 104.4 217.43 132.75 212.15 157.88 200.93 177.68"/>
      <polygon class="cls-6" points="95.66 152.47 103.26 182.01 92.28 176.95 81.31 165.97 95.66 152.47"/>
      <polygon class="cls-1" points="139.66 33.1 184.19 11.8 144.83 .12 107 .12 75.47 9.11 68.85 51.22 88.7 39.71 111.87 33.1 139.66 33.1"/>
      <polygon class="cls-1" points="33.24 114.34 22.46 49.54 7.19 76.49 0 110.69 0 149.27 11.68 180.71 33.24 142.69 33.24 114.34"/>
      <polygon class="cls-1" points="58.33 188.24 48.99 221.98 66.49 234.62 105.84 246.3 91.96 208.33 82.1 205.41 58.33 188.24"/>
      <polygon class="cls-6" points="141.98 146.78 145.38 121.03 134.7 115.56 134.86 138.39 141.98 146.78"/>
    </g>
  </g>
</svg>