<?xml version="1.0" encoding="UTF-8"?>
<svg id="Calque_2" data-name="Calque 2" xmlns="http://www.w3.org/2000/svg" viewBox="0 0 378 356">
  <defs>
    <style>
      .cls-1 {
        fill: #19e446;
      }

      .cls-2 {
        fill: #05b500;
      }

      .cls-3 {
        fill: #00be0d;
      }

      .cls-4 {
        fill: #099e00;
      }

      .cls-5 {
        fill: #10cc0b;
      }

      .cls-6 {
        fill: #4ac631;
      }

      .cls-7 {
        fill: none;
      }

      .cls-8 {
        fill: #0a6301;
      }

      .cls-9 {
        fill: #0bbe00;
      }
    </style>
  </defs>
  <g id="perso">
    <polygon class="cls-7" points="166 312 218 342 103 356 83 344 72 333 72 311.68 45 293 46 260 25 242 26 201 0 182 5 152 72 130 104.49 133.94 105 134 110.96 142.73 111 142.78 124.67 161.32 142.5 185.51 192 254 166 312"/>
    <polygon class="cls-7" points="266.56 182.18 252 165 252.39 164.97 266.56 182.18"/>
    <polygon class="cls-3" points="142.5 185.51 124.67 161.32 111 142.78 110.96 142.73 105 134 92 117 88 48 117 0 122 83 130.72 126.6 142.5 185.51"/>
    <polygon class="cls-1" points="162 90 122 83 117 0 137 0 148 15 148 56 162 90"/>
    <polygon class="cls-9" points="110.96 142.73 104.49 133.94 92 117 105 134 110.96 142.73"/>
    <polyline class="cls-3" points="177.81 166.96 142.5 185.51 130.72 126.6 122 83"/>
    <polyline class="cls-6" points="122 83 162 90 207 137 231 139 177.81 166.96"/>
    <polygon class="cls-9" points="274 322 218 342 166 312 192 254 142.5 185.51 177.81 166.96 243 262 274 322"/>
    <polygon class="cls-5" points="243 262 177.81 166.96 231 139 243 262"/>
    <polygon class="cls-3" points="287 207 243 262 231 139 252 165 266.56 182.18 287 207"/>
    <polygon class="cls-9" points="266.56 182.18 252 165 231 139 252.39 164.97 266.56 182.18"/>
    <polygon class="cls-2" points="378 156 354.64 169.09 287 207 266.56 182.18 252.39 164.97 378 156"/>
    <polygon class="cls-1" points="266.56 182.18 252 165 252.39 164.97 266.56 182.18"/>
    <polygon class="cls-6" points="378 156 373 232 364 328 342 309 287 207 354.64 169.09 378 156"/>
    <polygon class="cls-4" points="364 328 274 322 243 262 287 207 342 309 364 328"/>
    <polygon class="cls-8" points="218 342 103 356 83 344 166 312 218 342"/>
    <polygon class="cls-8" points="83 344 72 333 164.5 303.75 166 312 83 344"/>
    <polygon class="cls-3" points="72 333 72 311.68 148 286 159 276 166 312 72 333"/>
    <polygon class="cls-1" points="192 254 166 312 164.5 303.75 159 276 177.81 263.46 192 254"/>
    <polygon class="cls-8" points="72 311.68 45 293 138 271 148 286 72 311.68"/>
    <polygon class="cls-8" points="138 271 172 248 177.81 263.46 159 276 148 286 138 271"/>
    <polygon class="cls-3" points="45 293 46 260 130.72 249.88 138 245.52 138 271 45 293"/>
    <polygon class="cls-1" points="138 245.52 156 236 167 227 172 248 138 271 138 245.52"/>
    <polygon class="cls-8" points="46 260 25 242 119 239.04 130.72 249.88 46 260"/>
    <polygon class="cls-8" points="119 239.04 152 218 156 236 138 245.52 130.72 249.88 119 239.04"/>
    <polygon class="cls-3" points="25 242 26 201 96.5 215.93 111 210 119 239.04 25 242"/>
    <polygon class="cls-1" points="111 210 146 196 152 218 119 239.04 111 210"/>
    <polygon class="cls-8" points="0 182 26 201 96.5 215.93 80.6 194 0 182"/>
    <polygon class="cls-8" points="80.6 194 127 190 130.72 202.11 111 210 96.5 215.93 80.6 194"/>
    <polygon class="cls-3" points="5 152 0 182 80.6 194 83 157.69 5 152"/>
    <polygon class="cls-1" points="83 157.69 124.67 161.32 127 190 80.6 194 83 157.69"/>
    <polygon class="cls-3" points="111 142.78 50.69 155.33 5 152 72 130 104.49 133.94 105 134 110.96 142.73 111 142.78"/>
    <polygon class="cls-8" points="124.67 161.32 83 157.69 50.69 155.33 111 142.78 124.67 161.32"/>
    <polygon class="cls-8" points="192 254 177.81 263.46 172 248 167 227 156 236 152 218 146 196 130.72 202.11 127 190 124.67 161.32 142.5 185.51 192 254"/>
  </g>
</svg>