<?xml version="1.0" encoding="UTF-8"?>
<svg id="Calque_2" data-name="Calque 2" xmlns="http://www.w3.org/2000/svg" viewBox="0 0 378 356">
  <defs>
    <style>
      .cls-1 {
        fill: #630e00;
      }

      .cls-2 {
        fill: #e44000;
      }

      .cls-3 {
        fill: #9e1800;
      }

      .cls-4 {
        fill: #c61400;
      }

      .cls-5 {
        fill: #be1d00;
      }

      .cls-6 {
        fill: #b51e00;
      }

      .cls-7 {
        fill: none;
      }

      .cls-8 {
        fill: #c20;
      }

      .cls-9 {
        fill: #be2800;
      }
    </style>
  </defs>
  <g id="perso">
    <polygon class="cls-7" points="212 44 160 14 275 0 295 12 306 23 306 44.32 333 63 332 96 353 114 352 155 378 174 373 204 306 226 273.51 222.06 273 222 267.04 213.27 267 213.22 253.33 194.68 235.5 170.49 186 102 212 44"/>
    <polygon class="cls-7" points="111.44 173.82 126 191 125.61 191.03 111.44 173.82"/>
    <polygon class="cls-9" points="235.5 170.49 253.33 194.68 267 213.22 267.04 213.27 273 222 286 239 290 308 261 356 256 273 247.28 229.4 235.5 170.49"/>
    <polygon class="cls-2" points="216 266 256 273 261 356 241 356 230 341 230 300 216 266"/>
    <polygon class="cls-5" points="267.04 213.27 273.51 222.06 286 239 273 222 267.04 213.27"/>
    <polyline class="cls-9" points="200.19 189.04 235.5 170.49 247.28 229.4 256 273"/>
    <polyline class="cls-4" points="256 273 216 266 171 219 147 217 200.19 189.04"/>
    <polygon class="cls-5" points="104 34 160 14 212 44 186 102 235.5 170.49 200.19 189.04 135 94 104 34"/>
    <polygon class="cls-8" points="135 94 200.19 189.04 147 217 135 94"/>
    <polygon class="cls-9" points="91 149 135 94 147 217 126 191 111.44 173.82 91 149"/>
    <polygon class="cls-5" points="111.44 173.82 126 191 147 217 125.61 191.03 111.44 173.82"/>
    <polygon class="cls-6" points="0 200 23.36 186.91 91 149 111.44 173.82 125.61 191.03 0 200"/>
    <polygon class="cls-2" points="111.44 173.82 126 191 125.61 191.03 111.44 173.82"/>
    <polygon class="cls-4" points="0 200 5 124 14 28 36 47 91 149 23.36 186.91 0 200"/>
    <polygon class="cls-3" points="14 28 104 34 135 94 91 149 36 47 14 28"/>
    <polygon class="cls-1" points="160 14 275 0 295 12 212 44 160 14"/>
    <polygon class="cls-1" points="295 12 306 23 213.5 52.25 212 44 295 12"/>
    <polygon class="cls-9" points="306 23 306 44.32 230 70 219 80 212 44 306 23"/>
    <polygon class="cls-2" points="186 102 212 44 213.5 52.25 219 80 200.19 92.54 186 102"/>
    <polygon class="cls-1" points="306 44.32 333 63 240 85 230 70 306 44.32"/>
    <polygon class="cls-1" points="240 85 206 108 200.19 92.54 219 80 230 70 240 85"/>
    <polygon class="cls-9" points="333 63 332 96 247.28 106.12 240 110.48 240 85 333 63"/>
    <polygon class="cls-2" points="240 110.48 222 120 211 129 206 108 240 85 240 110.48"/>
    <polygon class="cls-1" points="332 96 353 114 259 116.96 247.28 106.12 332 96"/>
    <polygon class="cls-1" points="259 116.96 226 138 222 120 240 110.48 247.28 106.12 259 116.96"/>
    <polygon class="cls-9" points="353 114 352 155 281.5 140.07 267 146 259 116.96 353 114"/>
    <polygon class="cls-2" points="267 146 232 160 226 138 259 116.96 267 146"/>
    <polygon class="cls-1" points="378 174 352 155 281.5 140.07 297.4 162 378 174"/>
    <polygon class="cls-1" points="297.4 162 251 166 247.28 153.89 267 146 281.5 140.07 297.4 162"/>
    <polygon class="cls-9" points="373 204 378 174 297.4 162 295 198.31 373 204"/>
    <polygon class="cls-2" points="295 198.31 253.33 194.68 251 166 297.4 162 295 198.31"/>
    <polygon class="cls-9" points="267 213.22 327.31 200.67 373 204 306 226 273.51 222.06 273 222 267.04 213.27 267 213.22"/>
    <polygon class="cls-1" points="253.33 194.68 295 198.31 327.31 200.67 267 213.22 253.33 194.68"/>
    <polygon class="cls-1" points="186 102 200.19 92.54 206 108 211 129 222 120 226 138 232 160 247.28 153.89 251 166 253.33 194.68 235.5 170.49 186 102"/>
  </g>
</svg>